<svg version="1.1" id="Layer_1" xmlns="http://www.w3.org/2000/svg" xmlns:xlink="http://www.w3.org/1999/xlink" x="0px" y="0px"
	 viewBox="0 0 250 73" style="enable-background:new 0 0 250 73;" xml:space="preserve">
	 <title>NCSA Logo</title>
<style type="text/css">
	.st0{fill:#0057B8;}
</style>
<g>
	<polygon class="st0" points="49.8,59 41.9,18.6 42.5,58.6 42.5,58.6 34.7,10.5 33.3,46 32.7,62 32.6,60.3 29.7,32.7 26.4,0.8
		23.1,32.7 20.3,60.3 20.1,62 19.5,46 17.9,10.7 10.3,58.5 11,18.6 3,59 26.4,71.2 	"/>
	<path class="st0" d="M83.7,31.5c-1.9-3.8-2.9-6.5-4.8-12.4h-0.3c0.9,11.5,0.9,13.5,1.2,26.5h4.4v7.2H65.7v-7.2h4.2V17.5h-4.2v-7.2
		h20.5L95.4,29c2.1,4.4,3.2,7.1,5.3,13.3h0.3c-1.1-12.5-1.2-14.6-1.2-24.9h-4.4v-7.2h18.4v7.2h-4.2v35.2h-15L83.7,31.5z"/>
	<path class="st0" d="M156,38.1c-0.1,3-0.7,5.3-2,7.5c-2.8,5.1-9.5,8.1-17.6,8.1c-6.7,0-12.3-1.9-16.3-5.5
		c-4.1-3.7-6.2-9.7-6.2-17.1c0-6.2,1.5-11.4,4.4-15.2c3.4-4.4,8.4-6.7,15.1-6.7c3.9,0,7.4,0.9,9.6,2.7c1,0.8,1.6,1.5,2.5,3v-4.7
		h10.1V26h-11c-0.2-5.9-3.3-9.1-8.3-9.1c-6.3,0-9.7,5.4-9.7,15.1c0,9.1,3.4,14.2,9.7,14.2c4.6,0,7.5-3,7.8-8H156V38.1z"/>
	<path class="st0" d="M170.2,38.1c0.1,5.6,2.2,8,6.9,8c4.1,0,6.5-1.7,6.5-4.4c0-2.2-0.9-3-5.4-4.6l-9.5-3.5c-6-2.2-8.8-5.7-8.8-11.2
		c0-8.3,5.4-13.1,14.7-13.1c5.5,0,8.7,1.5,10.5,4.9v-3.9h9.7v13.4h-9.7c0-4.8-2.2-6.9-7.2-6.9c-3.9,0-6,1.4-6,3.9
		c0,2.1,0.9,2.8,5.7,4.5l7.5,2.6c8,2.8,10.7,6,10.7,12.5c0,8.6-5.5,13.3-15.5,13.3c-5.9,0-9-1.5-10.9-5.2v4.1h-9.7V38.1H170.2
		L170.2,38.1z"/>
	<path class="st0" d="M226.1,33.6l-4.6-14l-4.6,14H226.1z M243.7,45.5h2.5v7.2H226v-7.2h4.8l-1.8-4.9h-15.1l-1.8,4.9h4.8v7.2h-18.3
		v-7.2h2.6l14.1-35.2h14.4L243.7,45.5z"/>
	<path class="st0" d="M71,60.4c-3.5,0-5.4,2.1-5.4,5.4c0,3.4,1.8,5.4,5.4,5.4c2.3,0,4.5-1.1,4.5-3.8H74c0,1.7-1.4,2.7-2.9,2.7
		c-2.6,0-3.9-1.9-3.9-4.4c0-3,1.4-4.4,3.9-4.4c1.8,0,3,1,3.2,2.9h1.2v-3.8h-1.2v1.3l0,0C73.6,60.9,72,60.4,71,60.4"/>
	<path class="st0" d="M82.4,60.4c-3.5,0-5.4,2.1-5.4,5.4c0,3.4,1.8,5.4,5.4,5.4s5.4-2.1,5.4-5.4C87.7,62.5,85.9,60.4,82.4,60.4
		 M82.4,70.3c-2.4,0-3.9-1.9-3.9-4.4c0-3,1.4-4.4,3.9-4.4c2.4,0,3.9,1.4,3.9,4.4C86.2,68.4,84.8,70.3,82.4,70.3"/>
	<polygon class="st0" points="93.5,60.6 88.5,60.6 88.5,61.6 90.2,61.6 90.2,70.1 88.5,70.1 88.5,71.2 97.3,71.2 97.3,67.6 96,67.6
		96,70.1 91.6,70.1 91.6,61.6 93.5,61.6 	"/>
	<polygon class="st0" points="103.5,60.6 98.5,60.6 98.5,61.6 100.1,61.6 100.1,70.1 98.5,70.1 98.5,71.2 107.2,71.2 107.2,67.6
		106,67.6 106,70.1 101.6,70.1 101.6,61.6 103.5,61.6 	"/>
	<polygon class="st0" points="117.6,60.6 108.4,60.6 108.4,61.6 110,61.6 110,70.1 108.4,70.1 108.4,71.2 117.6,71.2 117.6,67.9
		116.4,67.9 116.4,70.1 111.4,70.1 111.4,66.3 113.8,66.3 113.8,67.9 115,67.9 115,63.8 113.8,63.8 113.8,65.3 111.4,65.3
		111.4,61.6 116.4,61.6 116.4,63.8 117.6,63.8 	"/>
	<path class="st0" d="M124.4,60.4c-3.5,0-5.4,2.1-5.4,5.4c0,3.4,1.8,5.4,5.4,5.4c1.2,0,2.4-0.7,3.1-1.7l0,0V71h1.3v-4h1.4v-1h-4.5v1
		h1.8c0,1.9-1.2,3.3-3.1,3.3c-2.6,0-3.9-1.9-3.9-4.4c0-3,1.4-4.4,3.9-4.4c1.8,0,2.9,1.1,3.1,2.9h1.2v-3.8h-1.2v1.3l0,0
		C126.9,60.9,125.5,60.4,124.4,60.4"/>
	<polygon class="st0" points="140.2,60.6 130.9,60.6 130.9,61.6 132.5,61.6 132.5,70.1 130.9,70.1 130.9,71.2 140.2,71.2
		140.2,67.9 138.9,67.9 138.9,70.1 134,70.1 134,66.3 136.3,66.3 136.3,67.9 137.6,67.9 137.6,63.8 136.3,63.8 136.3,65.3 134,65.3
		134,61.6 138.9,61.6 138.9,63.8 140.2,63.8 	"/>
	<path class="st0" d="M150,60.6h-4.5v1h1.6v8.5h-1.6v1h4.7v-1h-1.6v-3.6h1.3c2,0,2.2,0.4,2.8,2.3l0.7,2.3h2.3v-1h-1.2l-0.4-1.6
		c-0.2-0.6-0.3-1.2-0.6-1.6s-0.6-0.8-1.3-0.8l0,0c1.5-0.1,2.4-1.2,2.4-2.7C154.4,60.7,152.1,60.6,150,60.6 M148.5,65.5v-3.9h1.2
		c1.4,0,3.2,0,3.2,1.8c0,2.1-1.6,2.1-3.2,2.1H148.5z"/>
	<polygon class="st0" points="165.8,60.6 156.6,60.6 156.6,61.6 158.2,61.6 158.2,70.1 156.6,70.1 156.6,71.2 165.8,71.2
		165.8,67.9 164.5,67.9 164.5,70.1 159.6,70.1 159.6,66.3 162,66.3 162,67.9 163.2,67.9 163.2,63.8 162,63.8 162,65.3 159.6,65.3
		159.6,61.6 164.5,61.6 164.5,63.8 165.8,63.8 	"/>
	<path class="st0" d="M172.6,60.4c-3.5,0-5.4,2.1-5.4,5.4c0,3.4,1.8,5.4,5.4,5.4c2.3,0,4.5-1.1,4.5-3.8h-1.5c0,1.7-1.4,2.7-2.9,2.7
		c-2.6,0-3.9-1.9-3.9-4.4c0-3,1.4-4.4,3.9-4.4c1.8,0,3,1,3.2,2.9h1.2v-3.8h-1.2v1.3l0,0C175.2,60.9,173.6,60.4,172.6,60.4"/>
	<path class="st0" d="M183,60.6h-4.5v1h1.6v8.5h-1.6v1h4.7v-1h-1.6v-3.6h1.3c2,0,2.2,0.4,2.8,2.3l0.7,2.3h2.3v-1h-1.2l-0.4-1.6
		c-0.2-0.6-0.3-1.2-0.6-1.6s-0.6-0.8-1.3-0.8l0,0c1.5-0.1,2.4-1.2,2.4-2.7C187.4,60.7,185.1,60.6,183,60.6 M181.5,65.5v-3.9h1.2
		c1.4,0,3.2,0,3.2,1.8c0,2.1-1.6,2.1-3.2,2.1H181.5z"/>
	<path class="st0" d="M199.6,60.6h-4.4v1h1.6v5.5c0,1.9-0.8,3.2-2.8,3.2c-2.3,0-2.8-1.7-2.8-3.2v-5.5h1.7v-1h-4.6v1h1.4v5.5
		c0,2.1,0.8,4.2,4.2,4.2c2.8,0,4.2-1.4,4.2-4.2v-5.5h1.4L199.6,60.6L199.6,60.6z"/>
	<polygon class="st0" points="205.3,60.6 200.7,60.6 200.7,61.6 202.3,61.6 202.3,70.1 200.7,70.1 200.7,71.2 205.3,71.2
		205.3,70.1 203.7,70.1 203.7,61.6 205.3,61.6 	"/>
	<polygon class="st0" points="215.9,60.6 206.5,60.6 206.5,64.1 207.7,64.1 207.7,61.6 210.5,61.6 210.5,70.1 208.7,70.1
		208.7,71.2 213.6,71.2 213.6,70.1 211.9,70.1 211.9,61.6 214.7,61.6 214.7,64.1 215.9,64.1 	"/>
	<polygon class="st0" points="221.7,60.6 217,60.6 217,61.6 218.6,61.6 218.6,70.1 217,70.1 217,71.2 221.7,71.2 221.7,70.1
		220,70.1 220,61.6 221.7,61.6 	"/>
	<polygon class="st0" points="234.4,60.6 229.8,60.6 229.8,61.6 231.4,61.6 231.4,69.5 231.4,69.5 226.5,60.6 222.7,60.6
		222.7,61.6 224.4,61.6 224.4,70.1 222.7,70.1 222.7,71.2 227.3,71.2 227.3,70.1 225.7,70.1 225.7,61.9 225.7,61.9 230.8,71.2
		232.7,71.2 232.7,61.6 234.4,61.6 	"/>
	<path class="st0" d="M240.4,60.4c-3.5,0-5.4,2.1-5.4,5.4c0,3.4,1.8,5.4,5.4,5.4c1.2,0,2.4-0.7,3.1-1.7l0,0V71h1.3v-4h1.4v-1h-4.5v1
		h1.8c0,1.9-1.2,3.3-3.1,3.3c-2.6,0-3.9-1.9-3.9-4.4c0-3,1.4-4.4,3.9-4.4c1.8,0,2.9,1.1,3.1,2.9h1.2v-3.8h-1.3v1.3l0,0
		C242.9,60.9,241.5,60.4,240.4,60.4"/>
</g>
</svg>
